<?xml version="1.0" encoding="utf-8"?>
<!-- Generator: Adobe Illustrator 18.0.0, SVG Export Plug-In . SVG Version: 6.00 Build 0)  -->
<!DOCTYPE svg PUBLIC "-//W3C//DTD SVG 1.1//EN" "http://www.w3.org/Graphics/SVG/1.1/DTD/svg11.dtd" [
	<!ENTITY ns_extend "http://ns.adobe.com/Extensibility/1.0/">
	<!ENTITY ns_ai "http://ns.adobe.com/AdobeIllustrator/10.0/">
	<!ENTITY ns_graphs "http://ns.adobe.com/Graphs/1.0/">
	<!ENTITY ns_vars "http://ns.adobe.com/Variables/1.0/">
	<!ENTITY ns_imrep "http://ns.adobe.com/ImageReplacement/1.0/">
	<!ENTITY ns_sfw "http://ns.adobe.com/SaveForWeb/1.0/">
	<!ENTITY ns_custom "http://ns.adobe.com/GenericCustomNamespace/1.0/">
	<!ENTITY ns_adobe_xpath "http://ns.adobe.com/XPath/1.0/">
]>
<svg version="1.1"
	 id="svg2" xmlns:x="&ns_extend;" xmlns:i="&ns_ai;" xmlns:graph="&ns_graphs;" xmlns:svg="http://www.w3.org/2000/svg"
	 xmlns="http://www.w3.org/2000/svg" xmlns:xlink="http://www.w3.org/1999/xlink" x="0px" y="0px" viewBox="0 0 441.6 272"
	 enable-background="new 0 0 441.6 272" xml:space="preserve">
<metadata>
</metadata>
<path id="path27" fill="#005030" d="M327.8,182.2l0-173.3h104.6c0,0-0.1,193.7-0.1,200.6c0,38-104.4,53.3-203.1,53.3
	c0-4.8,0-16.6,0-24.1C278.6,238.6,327.8,228.2,327.8,182.2"/>
<path id="path31" fill="#F47321" d="M113.8,182.2l0-173.3H9.2c0,0,0.1,193.7,0.1,200.6c0,38,104.4,53.3,203.1,53.3
	c0-4.8,0-16.6,0-24.1C163,238.6,113.8,228.2,113.8,182.2"/>
</svg>
